<svg width="633" height="650" viewBox="0 0 633 650" fill="none" xmlns="http://www.w3.org/2000/svg">
<path d="M85.7839 297.747L84.7302 298.139C79.7133 300.016 75.2762 303.27 71.8875 307.558C68.4987 311.846 66.2843 317.007 65.4781 322.498L57.5605 376.344L79.4769 368.11L85.7839 297.747Z" fill="#CFCFD0"/>
<path d="M64.0632 332.05L57.5605 376.297L79.4769 368.062L82.4121 335.328L64.0632 332.05Z" fill="#D18E86"/>
<path d="M36.3065 634.064C36.3065 634.064 31.8962 633.342 29.834 641.906H85.2721V634.064H36.3065Z" fill="#4D3529"/>
<g style="mix-blend-mode:multiply" opacity="0.41">
<path d="M51.6446 566.635C56.957 566.626 62.0836 564.596 66.0608 560.926C70.038 557.256 72.592 552.199 73.2427 546.705C73.8934 541.211 72.5961 535.659 69.5946 531.091C66.5931 526.524 62.0941 523.256 56.943 521.901L48.7695 566.431C49.7233 566.556 50.6833 566.625 51.6446 566.635Z" fill="#1F9874"/>
</g>
<path d="M83.3901 387.323C81.5774 383.115 78.6345 379.542 74.9165 377.037C71.1986 374.532 66.8645 373.202 62.4371 373.207C60.9566 373.215 59.48 373.367 58.0268 373.662C57.2575 376.549 57.3306 379.609 58.2367 382.453C59.1428 385.297 60.8409 387.795 63.1145 389.629L63.3553 389.817C66.3486 392.203 70.1171 393.277 73.8589 392.811C77.6007 392.345 81.0203 390.377 83.3901 387.323Z" fill="#EF7D6E"/>
<path d="M96 88.6571C106.747 75.6856 120.581 68 135.949 68C156.375 68 172.512 79.2147 172.512 100.829C172.512 121.643 148.081 126.756 148.081 136.371V145.17H119.662L119.512 132.355C119.512 117.627 143.927 109.314 143.927 100.499C143.927 94.4135 137.906 92.9861 132.562 92.9861C125.954 92.9861 117.811 99.6993 112.588 106.114L96 88.6571ZM133.029 149.17C143.927 149.17 151.303 157.012 151.303 166.141C151.303 175.269 144.243 182.626 133.029 182.626C123.034 182.626 115.508 174.469 115.508 166.141C115.586 163.826 116.101 161.551 117.024 159.444C117.947 157.338 119.26 155.442 120.888 153.866C122.516 152.289 124.426 151.063 126.509 150.257C128.593 149.451 130.808 149.082 133.029 149.17Z" fill="#F3414E"/>
<path d="M99.5518 88.6571C110.299 75.6856 124.132 68 139.486 68C159.927 68 176.063 79.2147 176.063 100.829C176.063 121.643 151.633 126.756 151.633 136.371V145.17H123.199L123.049 132.355C123.049 117.627 147.479 109.314 147.479 100.499C147.479 94.4135 141.458 92.9861 136.114 92.9861C129.506 92.9861 121.363 99.6993 116.14 106.114L99.5518 88.6571ZM136.566 149.17C147.479 149.17 154.854 157.012 154.854 166.141C154.854 175.269 147.795 182.626 136.566 182.626C126.586 182.626 119.06 174.469 119.06 166.141C119.135 163.827 119.649 161.552 120.57 159.446C121.492 157.339 122.804 155.443 124.43 153.867C126.057 152.29 127.966 151.063 130.048 150.257C132.131 149.451 134.346 149.082 136.566 149.17Z" fill="white"/>
<path d="M90.6159 144.27H94.1682L90.5557 140.475L90.6159 144.27Z" fill="#C69A42"/>
<g opacity="0.53">
<path d="M202 38.7947C210.219 28.8819 220.846 23 232.541 23C248.166 23 260.509 31.564 260.509 48.0959C260.509 64.0161 241.829 67.9217 241.829 75.2779V82.0068H220.093L219.973 72.2194C219.973 60.9576 238.653 54.5895 238.653 47.845C238.653 43.1395 234.062 42.0886 229.952 42.0886C224.91 42.0886 218.678 47.2332 214.689 52.1426L202 38.7947ZM230.314 85.0653C238.653 85.0653 244.282 91.0727 244.282 98.0525C244.282 105.032 238.878 110.6 230.314 110.6C222.667 110.6 216.917 104.326 216.917 98.0525C216.973 96.2815 217.365 94.5395 218.07 92.9268C218.774 91.3141 219.778 89.8625 221.023 88.6555C222.268 87.4486 223.73 86.51 225.324 85.8939C226.919 85.2777 228.614 84.9961 230.314 85.0653Z" fill="white"/>
</g>
<g opacity="0.36">
<path d="M438 136.991C445.27 128.207 454.648 123 465.094 123C478.928 123 489.856 130.592 489.856 145.226C489.856 159.342 473.298 162.793 473.298 169.302V175.262H454.016L453.91 166.588C453.91 156.613 470.468 150.982 470.468 145.022C470.468 140.897 466.419 139.924 462.776 139.924C458.261 139.924 452.781 144.473 449.229 148.802L438 136.991ZM463.062 177.976C470.453 177.976 475.45 183.277 475.45 189.457C475.45 195.637 470.664 200.625 463.062 200.625C456.304 200.625 451.201 195.104 451.201 189.457C451.249 187.888 451.595 186.344 452.219 184.915C452.842 183.486 453.73 182.199 454.833 181.129C455.935 180.059 457.23 179.227 458.642 178.68C460.055 178.134 461.557 177.884 463.062 177.944V177.976Z" fill="white"/>
</g>
<path d="M412 68.0271C417.148 61.7531 423.786 58.1299 431.147 58.1299C440.946 58.1299 448.683 63.4941 448.683 73.8148C448.683 83.7905 436.972 86.253 436.972 90.8487V95.0836H423.35V88.9351C423.35 81.8769 435.061 77.8772 435.061 73.658C435.061 70.7406 432.186 70.0504 429.612 70.0504C426.436 70.0504 422.537 73.2815 420.023 76.3244L412 68.0271ZM429.747 97.0442C434.985 97.0442 438.523 100.809 438.523 105.185C438.523 109.561 435.136 113.027 429.747 113.027C428.686 113.112 427.62 112.967 426.616 112.603C425.611 112.238 424.69 111.661 423.91 110.907C423.129 110.154 422.507 109.241 422.081 108.225C421.655 107.209 421.435 106.113 421.435 105.004C421.435 103.896 421.655 102.799 422.081 101.784C422.507 100.768 423.129 99.8546 423.91 99.1013C424.69 98.348 425.611 97.7709 426.616 97.4061C427.62 97.0414 428.686 96.8968 429.747 96.9815V97.0442Z" fill="white"/>
<g opacity="0.21">
<path d="M584 207.666C585.549 205.64 587.506 203.993 589.732 202.841C591.958 201.689 594.4 201.061 596.885 201C603.493 201 608.702 204.623 608.702 211.587C608.702 218.551 600.814 219.963 600.814 223.069V225.908H591.632V221.767C591.632 217.061 599.52 214.332 599.52 211.493C599.52 209.533 597.578 209.062 595.847 209.062C593.709 209.062 591.09 211.227 589.404 213.297L584 207.666ZM595.952 227.194C596.688 227.136 597.428 227.234 598.128 227.481C598.827 227.728 599.471 228.12 600.022 228.632C600.573 229.145 601.019 229.768 601.333 230.464C601.648 231.16 601.824 231.915 601.853 232.684C601.853 235.57 599.565 238.001 595.952 238.001C595.23 238.071 594.503 237.984 593.815 237.744C593.128 237.504 592.496 237.118 591.96 236.609C591.425 236.101 590.997 235.481 590.704 234.79C590.411 234.1 590.26 233.353 590.26 232.597C590.26 231.842 590.411 231.095 590.704 230.404C590.997 229.713 591.425 229.094 591.96 228.585C592.496 228.077 593.128 227.69 593.815 227.451C594.503 227.211 595.23 227.124 595.952 227.194Z" fill="white"/>
</g>
<g opacity="0.32">
<path d="M38 31.9795C43.6748 25.1251 50.9752 21 59.0734 21C69.866 21 78.3857 26.9132 78.3857 38.2534C78.3857 49.2329 65.4858 51.9464 65.4858 57.0754V61.7809H50.4333L50.343 55.0207C50.343 47.1782 63.2429 42.8334 63.2429 38.1907C63.2429 35.0537 60.0819 34.2224 57.222 34.2224C53.7298 34.2224 49.4248 37.7672 46.6853 41.1552L38 31.9795ZM57.5682 63.9454C63.3182 63.9454 67.2168 68.0862 67.2168 72.9015C67.2168 77.7168 63.4838 81.6066 57.5682 81.6066C52.2848 81.6066 48.3109 77.2933 48.3109 72.9015C48.3972 70.4369 49.4193 68.1089 51.1524 66.4294C52.8856 64.7499 55.1879 63.8564 57.5531 63.9454H57.5682Z" fill="white"/>
</g>
<path d="M476 77.4135C489.743 60.8345 507.429 51 527.073 51C553.204 51 573.826 65.336 573.826 92.9729C573.826 119.637 542.592 126.131 542.592 138.459V149.721H506.255L506.06 133.346C506.06 114.524 537.294 103.858 537.294 92.5651C537.294 84.7226 529.632 82.9346 522.753 82.9346C514.308 82.9346 503.892 91.5299 497.164 99.7175L476 77.4135ZM523.34 154.787C537.294 154.787 546.716 164.81 546.716 176.48C546.716 188.149 537.685 197.56 523.34 197.56C510.575 197.56 500.942 187.13 500.942 176.48C500.942 166.253 509.191 154.787 523.34 154.787Z" fill="#F3414E"/>
<path d="M480.532 77.4135C494.29 60.8345 511.962 51 531.605 51C557.736 51 578.358 65.336 578.358 92.9729C578.358 119.637 547.124 126.131 547.124 138.459V149.721H510.788L510.592 133.346C510.592 114.524 541.826 103.858 541.826 92.5651C541.826 84.7226 534.164 82.9346 527.285 82.9346C518.841 82.9346 508.424 91.5299 501.696 99.7175L480.532 77.4135ZM527.872 154.787C541.826 154.787 551.249 164.81 551.249 176.48C551.249 188.149 542.217 197.56 527.872 197.56C515.108 197.56 505.489 187.13 505.489 176.48C505.489 166.253 513.738 154.787 527.872 154.787Z" fill="white"/>
<path d="M497.21 99.7324H501.756L497.135 94.8701L497.21 99.7324Z" fill="#C69A42"/>
<path opacity="0.33" d="M554.532 420.858C554.532 420.858 569.419 535.907 554.532 569.63C542.385 540.189 547.473 427.823 554.532 420.858Z" fill="#4D3529"/>
<path d="M547.818 279.568C545.431 279.452 543.049 279.897 540.849 280.87" stroke="#4D3529" stroke-width="1.03" stroke-miterlimit="10"/>
<path d="M547.818 274.392C547.818 274.392 543.408 273.592 540.849 275.71" stroke="#1F9874" stroke-width="1.03" stroke-miterlimit="10" stroke-linecap="round"/>
<path d="M554.893 284.337L552.154 285.043C552.154 285.043 554.803 286.847 554.893 284.337Z" fill="#4D3529"/>
<path d="M551.357 297.747C551.357 297.747 551.357 293.293 551.883 292.603L553.283 297.434L551.357 297.747Z" fill="#EF7D6E"/>
<path d="M550.829 310.828C552.937 307.001 555.345 302.39 555.345 302.39L551.868 294.014C551.778 293.796 551.732 293.561 551.732 293.324C551.732 293.087 551.778 292.852 551.868 292.634C551.973 292.388 552.132 292.172 552.333 292.003C552.533 291.834 552.769 291.716 553.021 291.659C553.273 291.603 553.535 291.609 553.784 291.678C554.034 291.746 554.264 291.875 554.457 292.054L566.198 302.876C567.514 304.096 568.474 305.678 568.967 307.441L587.888 375.074C588.694 377.947 588.416 381.032 587.113 383.7C585.809 386.367 583.578 388.415 580.874 389.426L580.648 389.504C579.195 390.047 577.65 390.273 576.109 390.168C574.569 390.063 573.065 389.629 571.692 388.894C570.319 388.158 569.106 387.137 568.127 385.893C567.148 384.649 566.425 383.209 566.002 381.662L549.535 322.059C549.025 320.191 548.876 318.236 549.099 316.308C549.321 314.38 549.909 312.517 550.829 310.828Z" fill="#F7A89C"/>
<path d="M588.325 379.089C586.205 377.382 583.599 376.46 580.919 376.47C578.081 376.464 575.328 377.485 573.132 379.359C570.935 381.232 569.432 383.843 568.877 386.743C570.388 388.312 572.294 389.401 574.376 389.884C576.457 390.367 578.627 390.224 580.633 389.473L580.859 389.394C582.933 388.624 584.746 387.238 586.072 385.406C587.399 383.575 588.182 381.379 588.325 379.089Z" fill="#EF7D6E"/>
<g style="mix-blend-mode:overlay" opacity="0.41">
<path d="M566.212 345.916C572.58 364.189 582.153 374.321 588.309 379.293C588.435 377.862 588.298 376.419 587.903 375.043L568.982 307.409C568.489 305.647 567.529 304.065 566.212 302.845C566.212 302.845 556.172 317.071 566.212 345.916Z" fill="white"/>
</g>
<path opacity="0.22" d="M403.134 215.526C400.561 218.361 398.747 221.85 397.873 225.644C396.999 229.439 397.095 233.405 398.152 237.149C399.21 240.892 401.191 244.281 403.898 246.976C406.605 249.672 409.944 251.581 413.581 252.511L413.851 251.774C416.234 245.356 416.473 238.289 414.528 231.713C412.584 225.136 408.57 219.434 403.134 215.526Z" fill="#ECEDEE"/>
<path opacity="0.22" d="M262.801 240.763C262.8 237.674 262.078 234.632 260.695 231.899C259.313 229.166 257.314 226.825 254.869 225.078L251.693 228.372C248.826 231.367 246.657 235.007 245.352 239.012C244.047 243.018 243.642 247.282 244.166 251.476L245.205 259.789C249.93 259.606 254.404 257.522 257.685 253.974C260.967 250.426 262.801 245.691 262.801 240.763Z" fill="#ECEDEE"/>
<path d="M369.764 172.001C369.763 174.082 370.233 176.133 371.135 177.989C372.038 179.845 373.347 181.453 374.957 182.683C378.506 177.244 379.992 170.627 379.127 164.112L378.494 159.406C375.955 160.285 373.745 161.975 372.178 164.235C370.611 166.496 369.766 169.213 369.764 172.001Z" fill="#EF7D6E"/>
<path d="M353.416 165.868L358.73 157.241" stroke="#983533" stroke-width="0.91" stroke-miterlimit="10"/>
<path d="M261.009 150.199C259.828 150.2 258.65 150.348 257.502 150.638C256.717 153.162 256.672 155.872 257.372 158.423C258.071 160.973 259.485 163.249 261.431 164.959L261.642 165.131C263.588 166.838 265.979 167.9 268.508 168.179C271.038 168.459 273.59 167.944 275.836 166.7C275.836 166.37 275.836 166.041 275.836 165.712C275.84 161.607 274.281 157.668 271.502 154.76C268.722 151.852 264.948 150.212 261.009 150.199Z" fill="#EF7D6E"/>
<path d="M342.775 233.235V215.526" stroke="#983533" stroke-width="0.91" stroke-miterlimit="10"/>
<g style="mix-blend-mode:overlay" opacity="0.41">
<path d="M374.519 183.42C378.384 177.848 380.034 170.936 379.125 164.127L371.9 110.218C370.812 102.329 367.009 95.1206 361.198 89.9375C359.768 96.5252 357.45 113.465 362.026 142.404C368.047 180.785 357.329 208.124 357.329 208.124L374.519 183.42Z" fill="white"/>
</g>
<path d="M353.417 188.345L325.284 190.776C322.785 200.454 322.063 212.735 321.837 219.291L340.111 222.538L361.666 234.992C365.159 222.95 370.657 211.641 377.908 201.583L353.417 188.345Z" fill="#34251E"/>
<path opacity="0.22" d="M290.091 188.345L251.693 228.357C248.826 231.352 246.657 234.992 245.352 238.997C244.047 243.003 243.642 247.267 244.166 251.461L244.302 252.622C275.536 247.618 300.959 207.041 310.322 190.086L290.091 188.345Z" fill="#ECEDEE"/>
<path d="M290.091 84.7773C290.091 84.7773 279.193 89.4828 273.308 103.866C267.422 118.249 258.391 148.568 258.391 148.568L290.091 135.879V84.7773Z" fill="#D18E86"/>
<path d="M321.746 71.8369L290.136 84.777V188.298C290.136 188.298 301.139 191.027 321.746 191.027C342.353 191.027 353.356 188.298 353.356 188.298V84.777L321.746 71.8369Z" fill="#1F9874"/>
<path d="M290.091 84.7773C290.091 84.7773 279.193 89.4828 273.307 103.866C271.531 108.195 269.454 113.998 267.437 119.974C273.458 121.386 282.881 124.335 290.015 129.919L290.091 84.7773Z" fill="#187757"/>
<g style="mix-blend-mode:multiply">
<path d="M324.531 92.3213L290.091 165.868V135.627L324.531 92.3213Z" fill="#1F9874"/>
</g>
<g style="mix-blend-mode:multiply">
<path d="M342.925 113.072C342.925 113.072 344.852 158.025 342.925 168.252C340.998 178.479 335.173 191.779 335.173 205.315C335.173 218.852 353.417 178.102 353.417 178.102V137.133L342.925 113.072Z" fill="#1F9874"/>
</g>
<path d="M353.417 84.7773H353.568C358.425 87.0511 362.653 90.5667 365.858 94.9979C369.063 99.429 371.142 104.632 371.902 110.124L379.127 164.033C380.035 170.842 378.385 177.754 374.521 183.326L357.346 208.108V231.934C357.342 232.648 357.182 233.352 356.878 233.993C356.574 234.633 356.134 235.193 355.591 235.63C355.049 236.067 354.418 236.369 353.746 236.514C353.075 236.659 352.381 236.643 351.716 236.466C345.138 234.694 335.158 230.977 335.158 224.813V205.379C335.151 200.079 336.547 194.88 339.193 190.353L353.402 165.931L343.257 116.869C343.257 116.869 339.358 89.5456 353.417 84.7773Z" fill="#F7A89C"/>
<path d="M374.701 131.048L371.901 110.202C371.141 104.71 369.062 99.5072 365.857 95.076C362.652 90.6448 358.425 87.1292 353.567 84.8555H353.417C339.358 89.561 343.271 116.884 343.271 116.884L346.809 134.2C355.734 130.859 365.295 129.778 374.701 131.048Z" fill="#49BD97"/>
<path d="M321.822 82.4867H321.671C320.683 82.4867 319.704 82.2839 318.791 81.8897C317.878 81.4956 317.048 80.9179 316.349 80.1897C315.65 79.4615 315.096 78.5969 314.718 77.6454C314.339 76.6939 314.145 75.6741 314.145 74.6442V61.6885H329.288V74.6756C329.28 76.7393 328.492 78.7166 327.094 80.1788C325.696 81.641 323.802 82.4702 321.822 82.4867Z" fill="#F7A89C"/>
<path d="M332.599 50.8191C333.919 48.9231 334.587 46.6189 334.495 44.2785C334.495 40.0278 335.338 31.2599 329.317 27.6054C323.296 23.9508 311.254 18.3669 313.121 22.994C314.987 27.621 313.602 27.0093 309.508 26.8839C305.414 26.7584 306.242 41.4552 309.508 47.2743C312.775 53.0934 332.599 50.8191 332.599 50.8191Z" fill="#4D3529"/>
<path d="M314.174 51.3998C314.102 52.1304 313.827 52.8232 313.384 53.3943C312.94 53.9655 312.348 54.3903 311.677 54.6174C311.007 54.8445 310.288 54.8641 309.607 54.6738C308.926 54.4834 308.313 54.0914 307.842 53.5451C307.371 52.9989 307.062 52.3219 306.953 51.5963C306.843 50.8708 306.938 50.1277 307.226 49.4573C307.514 48.7869 307.982 48.2179 308.575 47.8193C309.167 47.4208 309.857 47.2098 310.562 47.2119C311.572 47.2727 312.519 47.7468 313.195 48.5311C313.872 49.3155 314.224 50.3465 314.174 51.3998Z" fill="#F7A89C"/>
<path d="M329.318 51.3998C329.39 52.1304 329.665 52.8232 330.108 53.3943C330.551 53.9655 331.144 54.3903 331.814 54.6174C332.485 54.8445 333.204 54.8641 333.885 54.6738C334.566 54.4834 335.179 54.0914 335.65 53.5451C336.121 52.9989 336.43 52.3219 336.539 51.5963C336.649 50.8708 336.554 50.1277 336.266 49.4573C335.978 48.7869 335.51 48.2179 334.917 47.8193C334.325 47.4208 333.635 47.2098 332.93 47.2119C331.921 47.2767 330.977 47.752 330.301 48.5354C329.626 49.3188 329.272 50.3475 329.318 51.3998Z" fill="#F7A89C"/>
<path d="M321.851 68.4177H321.64C318.793 68.4177 316.064 67.2395 314.051 65.1422C312.038 63.0449 310.907 60.2004 310.907 57.2344V41.3612C310.906 40.2929 311.106 39.2347 311.497 38.2471C311.888 37.2596 312.462 36.3621 313.186 35.6059C313.91 34.8498 314.77 34.25 315.717 33.8407C316.664 33.4314 317.679 33.2207 318.705 33.2207H324.726C326.798 33.2207 328.785 34.0784 330.25 35.605C331.715 37.1316 332.538 39.2022 332.538 41.3612V57.2344C332.534 60.191 331.408 63.026 329.406 65.1211C327.404 67.2161 324.688 68.4012 321.851 68.4177Z" fill="#F7A89C"/>
<path d="M314.174 61.6885V74.6756C314.174 74.8952 314.174 75.0991 314.174 75.3187C324.003 75.3187 329.227 65.2646 329.227 65.2646L320.857 61.6885H314.174Z" fill="#983533"/>
<path d="M317.682 46.5997C317.682 47.4624 317.321 48.1682 316.869 48.1682C316.418 48.1682 316.041 47.4467 316.041 46.5997C316.041 45.7528 316.418 45.0312 316.869 45.0312C317.321 45.0312 317.682 45.7214 317.682 46.5997Z" fill="#4D3529"/>
<path d="M318.961 41.3609C318.212 40.9933 317.395 40.8027 316.567 40.8027C315.74 40.8027 314.923 40.9933 314.174 41.3609" stroke="#4D3529" stroke-width="0.91" stroke-miterlimit="10" stroke-linecap="round"/>
<path d="M326.623 48.184C327.072 48.184 327.435 47.4747 327.435 46.5998C327.435 45.7249 327.072 45.0156 326.623 45.0156C326.174 45.0156 325.81 45.7249 325.81 46.5998C325.81 47.4747 326.174 48.184 326.623 48.184Z" fill="#4D3529"/>
<path d="M324.531 41.3609C325.279 40.9933 326.096 40.8027 326.924 40.8027C327.751 40.8027 328.569 40.9933 329.317 41.3609" stroke="#4D3529" stroke-width="0.91" stroke-miterlimit="10" stroke-linecap="round"/>
<path d="M326.623 55.2426C321.746 54.4427 323.703 54.4427 321.746 54.4427C319.789 54.4427 321.746 54.4427 316.869 55.2426C311.992 56.0425 310.848 47.2119 310.848 47.2119V57.2346C310.848 60.2006 311.979 63.0451 313.991 65.1424C316.004 67.2397 318.734 68.418 321.58 68.418H321.791C324.639 68.418 327.37 67.2402 329.385 65.1434C331.4 63.0465 332.534 60.2021 332.538 57.2346V47.2119C332.538 47.2119 331.515 56.0268 326.623 55.2426Z" fill="#4D3529"/>
<path d="M259.323 146.968L317.471 62.912C317.644 62.6626 317.866 62.4539 318.121 62.2996C318.377 62.1453 318.661 62.0487 318.955 62.0162C319.249 61.9837 319.546 62.0159 319.827 62.1107C320.108 62.2056 320.367 62.361 320.587 62.5669C320.923 62.8768 321.155 63.2904 321.25 63.7474C321.344 64.2044 321.297 64.681 321.113 65.1079L317.486 73.6248L320.858 76.7618C323.305 79.0126 324.89 82.1086 325.322 85.4803C325.753 88.8521 325.002 92.2728 323.206 95.1132L280.577 162.276C279.585 163.841 278.287 165.17 276.768 166.175C275.248 167.18 273.542 167.839 271.761 168.109C269.98 168.378 268.164 168.252 266.433 167.739C264.702 167.226 263.095 166.337 261.717 165.131L261.506 164.958C259.032 162.799 257.432 159.745 257.027 156.409C256.622 153.073 257.442 149.7 259.323 146.968Z" fill="#F7A89C"/>
<g style="mix-blend-mode:overlay" opacity="0.41">
<path d="M336.558 51.3989C336.581 50.5589 336.358 49.7314 335.92 49.0258C335.482 48.3202 334.849 47.7695 334.105 47.4463C334.365 46.4227 334.496 45.3682 334.496 44.3093C334.496 40.0587 335.339 31.2908 329.318 27.6362L329.077 27.5107C328.966 29.6981 328.412 31.8363 327.452 33.7847C326.262 37.204 321.777 59.6649 327.452 66.8643C329.034 65.8703 330.344 64.4673 331.254 62.7911C332.164 61.1148 332.643 59.2222 332.645 57.2965V55.5554H332.976C333.974 55.4829 334.906 55.0085 335.574 54.2328C336.243 53.4571 336.596 52.4408 336.558 51.3989Z" fill="white"/>
</g>
<g style="mix-blend-mode:overlay" opacity="0.41">
<path d="M320.858 76.668C320.858 76.668 281.872 128.726 283.754 157.226L323.206 95.0194C325.002 92.179 325.754 88.7583 325.322 85.3865C324.891 82.0148 323.306 78.9188 320.858 76.668Z" fill="white"/>
</g>
<path d="M326.127 131.456C321.295 142.435 300.718 162.386 290.091 172.237V188.314C325.916 177.82 332.735 116.524 326.127 131.456Z" fill="#49BD97"/>
<path d="M103.35 650C160.429 650 206.7 647.31 206.7 643.993C206.7 640.675 160.429 637.985 103.35 637.985C46.2714 637.985 0 640.675 0 643.993C0 647.31 46.2714 650 103.35 650Z" fill="#F3414E"/>
<path d="M147.364 427.524V634.064H98.4132L103.727 478.375L85.4531 634.064H36.5176L74.1487 427.524H147.364Z" fill="#EB6823"/>
<path d="M118.839 291.19L147.364 304.35V427.524H74.1484L85.784 297.747L118.839 291.19Z" fill="white"/>
<path d="M102.762 253.469C102.617 251.201 103.3 248.96 104.674 247.195C106.887 244.764 115.979 240.843 124.438 246.113C132.897 251.383 137.172 259.257 133.138 274.346C129.767 284.227 124.257 286.894 124.257 286.894L112.893 270.221L102.762 253.469Z" fill="#C73C27"/>
<path d="M112.382 318.311L95.5379 383.231C94.4145 387.569 92.3744 391.592 89.5668 395.003C86.7593 398.414 83.2553 401.128 79.3113 402.947L76.2256 404.358L82.2466 337.054L112.382 318.311Z" fill="#A4A4A4"/>
<path d="M147.363 392.924C147.363 392.924 125.537 394.822 125.537 427.525H147.363V392.924Z" fill="#A4A4A4"/>
<path d="M102.869 252.857C102.869 252.857 100.054 269.515 100.279 280.51C100.297 281.22 100.57 281.898 101.043 282.409C101.517 282.92 102.158 283.228 102.838 283.271L112.337 283.961L110.575 294.783C110.437 295.63 110.478 296.497 110.695 297.325C110.912 298.154 111.3 298.922 111.832 299.578C112.364 300.234 113.027 300.761 113.774 301.122C114.522 301.483 115.336 301.67 116.16 301.669H117.846C119.263 301.667 120.629 301.112 121.673 300.113C122.718 299.115 123.366 297.745 123.49 296.273L125.537 271.475C125.537 271.475 104.931 262.943 102.869 252.857Z" fill="#F7A89C"/>
<path d="M124.95 276.353C127.677 276.353 129.887 274.049 129.887 271.208C129.887 268.367 127.677 266.063 124.95 266.063C122.223 266.063 120.013 268.367 120.013 271.208C120.013 274.049 122.223 276.353 124.95 276.353Z" fill="#F7A89C"/>
<path d="M105.969 267.946C105.848 269.405 105.337 270.55 104.825 270.503C104.313 270.456 104.027 269.233 104.162 267.774C104.298 266.315 104.795 265.186 105.291 265.233C105.788 265.28 106.104 266.55 105.969 267.946Z" fill="#C73C27"/>
<path d="M104.133 262.535C104.773 262.422 105.431 262.474 106.048 262.687C106.664 262.901 107.221 263.268 107.67 263.758" stroke="#C73C27" stroke-width="1.2" stroke-miterlimit="10" stroke-linecap="round"/>
<path d="M112.336 283.96H117.695C117.695 283.96 114.263 294.736 110.425 295.771L112.336 283.96Z" fill="#4D3529"/>
<path d="M147.363 304.335L153.384 307.472C161.827 311.786 168.542 319.061 172.351 328.019L196.284 384.281C197.37 386.83 197.949 389.582 197.987 392.371C198.025 395.16 197.522 397.928 196.506 400.508C195.491 403.089 193.985 405.429 192.079 407.387C190.173 409.345 187.907 410.881 185.416 411.902L147.348 427.587H141.704C140.663 427.589 139.633 427.377 138.671 426.963C137.71 426.55 136.836 425.942 136.101 425.175C135.365 424.409 134.782 423.499 134.385 422.497C133.988 421.495 133.784 420.421 133.786 419.337V405.973C133.782 404.301 134.266 402.667 135.175 401.288C136.084 399.91 137.374 398.852 138.874 398.256L163.47 388.453L143.901 344.535C143.901 344.535 137.986 307.927 147.363 304.335Z" fill="#F7A89C"/>
<path d="M98.4433 634.065C98.4433 634.065 94.0178 633.343 91.9707 641.907H147.364V634.065H98.4433Z" fill="#4D3529"/>
<path d="M172.32 327.957C168.512 318.998 161.797 311.723 153.354 307.409L147.333 304.272C137.955 307.864 143.841 344.348 143.841 344.348L150.629 359.562C157.84 355.013 168.933 349.273 180.734 347.767L172.32 327.957Z" fill="#CFCFD0"/>
<path d="M180.78 398.303C180.78 400.813 181.378 403.283 182.521 405.493C183.664 407.702 185.316 409.581 187.328 410.961C191.8 408.54 195.221 404.438 196.898 399.487C198.575 394.536 198.382 389.105 196.36 384.296L195.908 383.23H195.396C191.541 383.213 187.837 384.791 185.097 387.617C182.357 390.442 180.804 394.286 180.78 398.303Z" fill="#EF7D6E"/>
<g style="mix-blend-mode:overlay" opacity="0.41">
<path d="M147.363 427.524H130.264V634.064H147.363V427.524Z" fill="white"/>
</g>
<g style="mix-blend-mode:multiply">
<path d="M103.651 480.289C103.651 480.289 79.1154 534.763 69.9785 634.002H85.4524L103.651 480.289Z" fill="#1F9874"/>
</g>
<g style="mix-blend-mode:multiply">
<path d="M74.1484 427.524L147.364 445.186V427.524H74.1484Z" fill="#1F9874"/>
</g>
<g style="mix-blend-mode:multiply">
<path d="M103.651 480.289V427.524H91.9402C91.9402 427.524 90.5102 469.544 103.651 480.289Z" fill="#1F9874"/>
</g>
<g style="mix-blend-mode:multiply" opacity="0.41">
<path d="M103.651 521.196C103.185 521.196 102.718 521.196 102.251 521.196L100.746 566.337C101.718 566.487 102.699 566.565 103.681 566.572C109.47 566.572 115.021 564.176 119.115 559.911C123.208 555.646 125.507 549.861 125.507 543.829C125.507 537.797 123.208 532.012 119.115 527.747C115.021 523.482 109.47 521.086 103.681 521.086L103.651 521.196Z" fill="#1F9874"/>
</g>
<g style="mix-blend-mode:overlay" opacity="0.41">
<path d="M138.889 398.193C137.39 398.789 136.1 399.847 135.191 401.225C134.282 402.604 133.797 404.238 133.802 405.91V419.274C133.8 420.358 134.003 421.432 134.4 422.434C134.798 423.436 135.381 424.346 136.116 425.112C136.852 425.879 137.726 426.487 138.687 426.9C139.649 427.314 140.679 427.526 141.719 427.524H147.364C147.364 400.248 138.889 398.193 138.889 398.193Z" fill="white"/>
</g>
<g style="mix-blend-mode:overlay" opacity="0.41">
<path d="M172.32 327.957C169.234 320.729 164.237 314.565 157.915 310.186C157.177 322.341 157.177 345.571 165.908 361.303C176.971 381.27 185.973 399.621 195.004 403.558C196.713 400.699 197.724 397.447 197.95 394.087C198.176 390.727 197.609 387.361 196.299 384.281L172.32 327.957Z" fill="white"/>
</g>
<g style="mix-blend-mode:multiply" opacity="0.36">
<path d="M104.674 247.226C103.3 248.991 102.617 251.232 102.763 253.5C102.266 256.637 100.083 270.754 100.279 280.541C100.297 281.251 100.569 281.929 101.043 282.44C101.517 282.951 102.157 283.259 102.838 283.302L108.001 283.678C120.299 272.589 113.525 246.034 112.923 243.729C109.9 244.009 107.027 245.228 104.674 247.226ZM103.365 254.441L105.592 258.143C104.67 257.037 103.918 255.788 103.365 254.441Z" fill="#851619"/>
</g>
<path d="M100.114 278.581L58.9006 371.341C57.5181 374.438 57.1882 377.933 57.9651 381.251C58.742 384.57 60.5796 387.513 63.1755 389.599L63.4164 389.787C65.1647 391.194 67.199 392.164 69.3632 392.625C71.5274 393.085 73.7641 393.023 75.9016 392.443C78.0392 391.863 80.021 390.781 81.6949 389.279C83.3688 387.777 84.6905 385.896 85.5585 383.78L112.382 318.311C113.346 315.984 113.594 313.403 113.093 310.922C112.591 308.442 111.365 306.185 109.582 304.461L102.688 297.779L104.494 279.883C104.539 279.426 104.457 278.965 104.256 278.556C104.056 278.147 103.747 277.807 103.366 277.577C103.093 277.401 102.788 277.288 102.471 277.244C102.154 277.199 101.831 277.225 101.524 277.32C101.217 277.415 100.933 277.576 100.69 277.793C100.447 278.011 100.251 278.279 100.114 278.581Z" fill="#F7A89C"/>
<g style="mix-blend-mode:overlay" opacity="0.41">
<path d="M124.439 246.16C122.197 244.759 119.681 243.901 117.078 243.65C119.381 251.163 124.394 262.284 134.569 266.472C135.352 256.355 131.242 250.411 124.439 246.16Z" fill="white"/>
</g>
<path d="M163.485 388.391L173.856 383.184" stroke="#983533" stroke-width="1.13" stroke-miterlimit="10"/>
<path d="M133.802 408.247L140.59 411.008" stroke="#983533" stroke-width="1.13" stroke-miterlimit="10"/>
<path d="M133.802 416.012L140.59 418.757" stroke="#983533" stroke-width="1.13" stroke-miterlimit="10"/>
<path d="M143.872 344.41C143.872 344.41 140.169 374.431 147.364 383.183L148.463 354.715L143.872 344.41Z" fill="#A4A4A4"/>
<path opacity="0.41" d="M131.227 331.987C131.227 331.987 112.337 390.743 100.716 398.993C89.0956 407.244 119.351 404.781 126.772 376.297C134.193 347.813 131.227 331.987 131.227 331.987Z" fill="#CFCFD0"/>
<g style="mix-blend-mode:overlay" opacity="0.41">
<path d="M109.583 304.429L102.688 297.747C102.688 297.747 76.6177 340.379 90.1348 372.564L112.382 318.31C113.353 315.979 113.605 313.392 113.103 310.905C112.602 308.418 111.372 306.155 109.583 304.429Z" fill="white"/>
</g>
<path d="M533.639 649.985C588.514 649.985 633 647.4 633 644.212C633 641.025 588.514 638.44 533.639 638.44C478.763 638.44 434.278 641.025 434.278 644.212C434.278 647.4 478.763 649.985 533.639 649.985Z" fill="#F3414E"/>
<path d="M553.101 416.42L582.303 510.922C584.133 516.873 584.433 523.221 583.173 529.331C581.914 535.441 579.138 541.1 575.123 545.742L509.765 621.156C509.765 621.156 509.585 642.754 492.997 645.624L483.333 580.845L543.377 522.529L553.101 416.42Z" fill="#A4A4A4"/>
<path d="M506.816 418.427C506.816 418.427 490.936 452.777 504.739 549.224L518.557 645.686H578.616C578.616 645.686 573.935 624.088 557.302 620.496C542.701 470.454 553.93 444.825 553.102 416.419C520.634 413.173 506.816 418.427 506.816 418.427Z" fill="#ECEDEE"/>
<path d="M518.556 645.687H578.615C578.615 645.687 573.934 624.089 557.301 620.497H514.958L518.556 645.687Z" fill="#4D3529"/>
<path d="M483.333 580.909L492.997 645.687C509.555 642.817 509.765 621.219 509.765 621.219L500.342 564.455L483.333 580.909Z" fill="#4D3529"/>
<g style="mix-blend-mode:overlay" opacity="0.41">
<path d="M553.103 416.42C550.454 416.154 547.955 415.95 545.577 415.793L531.413 416.42C531.413 416.42 515.969 572.548 557.318 620.497C542.702 470.455 553.931 444.904 553.103 416.42Z" fill="white"/>
<path d="M557.303 620.497C561.818 625.767 565.807 627.9 569.254 627.54C566.045 623.988 561.878 621.532 557.303 620.497Z" fill="white"/>
</g>
<path d="M548.195 264.778C548.195 264.778 540.669 258.818 531.397 260.888C522.124 262.958 509.736 274.895 508.487 302.39C507.237 329.886 511.723 339.234 516.946 339.234C522.169 339.234 535.37 310.468 535.37 310.468L540.729 283.804C540.729 283.804 548.331 268.934 548.195 264.778Z" fill="#9B1F1D"/>
<g style="mix-blend-mode:multiply">
<path d="M531.396 260.887C522.184 262.973 509.735 274.894 508.486 302.39C507.779 318.075 508.923 327.815 511.015 333.32C512.897 332.379 514.025 330.356 513.378 326.45C511.271 313.903 515.802 285.67 526.218 275.694C532.435 269.718 534.647 264.071 535.43 260.48C534.075 260.465 532.723 260.602 531.396 260.887Z" fill="#1F9874"/>
</g>
<path d="M531.396 307.331L504.739 324.286L506.816 418.396C506.816 418.396 526.851 425.031 553.102 416.388L551.371 364.205C551.371 364.205 557.934 356.676 557.241 339.203C556.549 321.73 550.829 310.797 550.829 310.797L540.729 307.331H531.396Z" fill="#E1348B"/>
<path d="M504.738 324.317C504.738 324.317 513.378 326.796 513.378 341.728V386.885H573.137V391.59C573.137 395.384 571.69 399.022 569.116 401.705C566.541 404.388 563.05 405.895 559.409 405.895H502.209C501 405.897 499.803 405.65 498.685 405.17C497.568 404.689 496.552 403.984 495.696 403.093C494.841 402.203 494.162 401.146 493.699 399.982C493.236 398.819 492.997 397.571 492.997 396.311V340.881C492.997 340.881 494.322 328.96 504.738 324.317Z" fill="#F7A89C"/>
<path d="M513.379 386.885H506.154" stroke="#983533" stroke-width="0.87" stroke-miterlimit="10"/>
<g style="mix-blend-mode:multiply" opacity="0.2">
<path d="M533.835 313.699L533.699 307.331H531.396L504.738 324.286C494.382 328.992 492.997 340.85 492.997 340.85V396.327C492.997 398.008 493.423 399.658 494.232 401.111C501.954 386.713 499.41 344.646 501.366 339.203C503.73 332.584 533.835 313.699 533.835 313.699Z" fill="#34251E"/>
</g>
<path d="M548.195 264.777C548.195 264.777 558.28 275.365 554.502 297.23L543.574 298.986V324.317C543.574 324.317 531.397 322.341 531.397 310.436V281.999C531.397 281.999 544.839 276.086 548.195 264.777Z" fill="#F7A89C"/>
<path d="M543.573 298.986L537.115 300.069C537.115 300.069 540.126 308.884 544.326 310.436L543.573 298.986Z" fill="#4D3529"/>
<path d="M529.394 293.324C532.694 293.324 535.37 290.536 535.37 287.097C535.37 283.658 532.694 280.87 529.394 280.87C526.094 280.87 523.418 283.658 523.418 287.097C523.418 290.536 526.094 293.324 529.394 293.324Z" fill="#F7A89C"/>
<path d="M513.378 337.477L522.018 386.884H513.378V337.477Z" fill="#34251E"/>
<g style="mix-blend-mode:overlay" opacity="0.41">
<path d="M551.371 364.236C551.371 364.236 529.5 379.043 533.067 379.043C536.635 379.043 551.778 376.471 551.778 376.471L551.371 364.236Z" fill="white"/>
</g>
<g style="mix-blend-mode:overlay" opacity="0.26">
<path d="M538.29 260.684C537.281 269.295 536.062 289.387 544.868 298.782L554.501 297.214C558.279 275.349 548.194 264.762 548.194 264.762C545.231 262.641 541.844 261.246 538.29 260.684Z" fill="white"/>
</g>
<path d="M533.067 294.782C533.067 295.403 532.891 296.009 532.56 296.525C532.229 297.041 531.759 297.443 531.209 297.681C530.659 297.918 530.053 297.98 529.469 297.859C528.885 297.738 528.349 297.439 527.928 297.001C527.507 296.562 527.22 296.003 527.104 295.394C526.988 294.786 527.047 294.155 527.275 293.582C527.503 293.009 527.889 292.519 528.384 292.174C528.879 291.829 529.461 291.646 530.057 291.646C530.855 291.646 531.621 291.976 532.185 292.564C532.75 293.153 533.067 293.951 533.067 294.782Z" fill="#4D3529"/>
<path d="M563.277 625.814C563.273 626.283 563.093 626.732 562.775 627.063C562.457 627.395 562.026 627.583 561.576 627.587H535.34C534.89 627.583 534.46 627.395 534.141 627.063C533.823 626.732 533.643 626.283 533.639 625.814C533.639 625.344 533.818 624.893 534.137 624.561C534.456 624.229 534.889 624.042 535.34 624.042H561.576C562.027 624.042 562.46 624.229 562.779 624.561C563.098 624.893 563.277 625.344 563.277 625.814Z" fill="#FEC853"/>
<path opacity="0.49" d="M517.699 419.463C517.699 419.463 507.268 525.211 528.236 624.042" stroke="#4D3529" stroke-width="1.03" stroke-miterlimit="10"/>
<path d="M487.142 502.106C487.142 502.106 474.995 526.982 455.442 521.085C460.409 500.506 487.142 502.106 487.142 502.106Z" fill="#49BD97"/>
<g style="mix-blend-mode:multiply">
<path d="M438.132 487.52C438.132 487.52 435.829 515.329 455.443 521.085C461.644 500.883 438.132 487.52 438.132 487.52Z" fill="#1F9874"/>
</g>
<path d="M477.298 539.766C477.298 539.766 460.936 561.866 442.752 552.314C451.302 533.021 477.298 539.766 477.298 539.766Z" fill="#49BD97"/>
<g style="mix-blend-mode:multiply">
<path d="M431.719 515.94C431.719 515.94 424.524 542.809 442.752 552.267C452.446 533.633 431.719 515.94 431.719 515.94Z" fill="#1F9874"/>
</g>
<path d="M462.035 573.442C462.035 573.442 442.347 592.358 425.909 579.716C437.5 562.258 462.035 573.442 462.035 573.442Z" fill="#49BD97"/>
<g style="mix-blend-mode:multiply">
<path d="M420.941 542.009C420.941 542.009 409.516 567.23 425.969 579.747C438.537 562.995 420.941 542.009 420.941 542.009Z" fill="#1F9874"/>
</g>
<path d="M391.619 615.917C391.619 615.917 451.317 569.552 462.08 490.986" stroke="#49BD97" stroke-width="2.03" stroke-miterlimit="10" stroke-linecap="round"/>
<path d="M466.219 458.942C466.219 458.942 477.267 484.368 460.619 496.586C448.307 479.709 466.219 458.942 466.219 458.942Z" fill="#49BD97"/>
<path d="M337.356 642.989C337.356 642.989 352.137 503.644 410.435 491.064C468.733 478.485 417.299 572.877 401.148 601.486C384.997 630.096 416.652 606.678 435.769 591.479C450.881 579.292 455.818 650.094 337.356 642.989Z" fill="#49BD97"/>
<g style="mix-blend-mode:multiply">
<path d="M380.029 541.492C385.223 515.753 427.46 491.033 427.535 490.986C423.38 489.512 417.781 489.418 410.435 490.986C352.137 503.534 337.356 642.911 337.356 642.911C339.629 643.052 341.871 643.146 344.009 643.24L344.942 643.099C406.206 633.405 378.419 560.188 380.029 541.492Z" fill="#1F9874"/>
</g>
<g style="mix-blend-mode:multiply">
<path d="M431.102 492.853C431.102 492.853 389.662 523.266 368.529 612.952" stroke="#1F9874" stroke-width="1.07" stroke-miterlimit="10"/>
</g>
<g style="mix-blend-mode:multiply">
<path d="M435.708 591.402C422.943 601.581 404.519 615.447 398.618 614.929C405.813 627.477 433.736 603.055 443.159 594.272C442.12 590.209 439.185 588.625 435.708 591.402Z" fill="#1F9874"/>
</g>
<g style="mix-blend-mode:multiply">
<path d="M429.205 543.907C416.058 542.761 402.83 544.646 390.46 549.428" stroke="#1F9874" stroke-width="1.07" stroke-miterlimit="10"/>
</g>
<path d="M177.589 463.741C177.589 463.741 187.689 494.892 211.457 491.488C209.018 466.612 177.589 463.741 177.589 463.741Z" fill="#49BD97"/>
<g style="mix-blend-mode:multiply">
<path d="M237.106 455.428C237.106 455.428 235.24 488.241 211.517 491.503C207.513 466.831 237.106 455.428 237.106 455.428Z" fill="#1F9874"/>
</g>
<path d="M182.933 509.368C182.933 509.368 198.376 538.04 221.136 530.104C214.347 506.137 182.933 509.368 182.933 509.368Z" fill="#49BD97"/>
<g style="mix-blend-mode:multiply">
<path d="M239.936 489.716C239.936 489.716 243.94 522.325 221.136 530.105C212.842 506.624 239.936 489.716 239.936 489.716Z" fill="#1F9874"/>
</g>
<path d="M195.215 551.342C195.215 551.342 215.069 576.893 236.218 565.082C225.636 542.606 195.215 551.342 195.215 551.342Z" fill="#49BD97"/>
<g style="mix-blend-mode:multiply">
<path d="M248.245 521.979C248.245 521.979 257.442 553.349 236.203 565.082C224.296 543.389 248.245 521.979 248.245 521.979Z" fill="#1F9874"/>
</g>
<path d="M270.357 613.329C270.357 613.329 208.341 548.707 208.642 455.225" stroke="#49BD97" stroke-width="2.39" stroke-miterlimit="10" stroke-linecap="round"/>
<path d="M209.033 417.126C209.033 417.126 192.009 444.794 209.41 462.016C226.524 444.512 209.033 417.126 209.033 417.126Z" fill="#49BD97"/>
<path d="M316.042 650C373.12 650 419.392 647.31 419.392 643.993C419.392 640.675 373.12 637.985 316.042 637.985C258.963 637.985 212.691 640.675 212.691 643.993C212.691 647.31 258.963 650 316.042 650Z" fill="#C73C27"/>
<path d="M157.403 279.459C198.783 229.581 251.963 200.03 311.059 200.03C389.663 200.03 451.709 243.133 451.709 326.263C451.709 406.256 357.751 426.035 357.751 462.973V496.837H248.425L247.823 447.586C247.823 390.932 341.796 358.903 341.796 325.039C341.796 301.637 318.751 296.085 298.053 296.085C272.645 296.085 241.336 321.949 221.286 346.59L157.403 279.459ZM299.83 512.239C341.796 512.239 370.155 542.417 370.155 577.504C370.155 612.011 342.97 640.934 299.83 640.934C261.416 640.934 232.47 609.564 232.47 577.504C232.41 546.73 257.291 512.239 299.83 512.239Z" fill="#F3414E"/>
<path d="M171.056 279.459C212.42 229.581 265.6 200.03 324.711 200.03C403.3 200.03 465.346 243.133 465.346 326.263C465.346 406.256 371.389 426.035 371.389 462.973V496.837H262.063L261.476 447.586C261.476 390.932 355.433 358.903 355.433 325.039C355.433 301.637 332.388 296.085 311.706 296.085C286.297 296.085 254.973 321.949 234.938 346.59L171.056 279.459ZM313.467 512.239C355.433 512.239 383.807 542.417 383.807 577.504C383.807 612.011 356.622 640.934 313.467 640.934C275.068 640.934 246.107 609.564 246.107 577.504C246.107 546.73 270.929 512.239 313.467 512.239Z" fill="white"/>
<path d="M221.225 346.59H234.878L220.984 331.987L221.225 346.59Z" fill="#AD843B"/>
<g style="mix-blend-mode:multiply" opacity="0.66">
<path d="M275.927 308.978L266.429 233.235L283.875 202.147C269.336 204.457 255.115 208.575 241.517 214.413C233.705 228.624 224.041 250.3 227.97 264.903C234.202 288.273 253.393 321.369 253.393 321.369L275.927 308.978Z" fill="#C69A42"/>
</g>
<g style="mix-blend-mode:multiply" opacity="0.66">
<path d="M383.808 331.988C383.808 331.988 379.052 350.245 368.35 342.575C357.647 334.905 341.059 318.311 341.059 318.311L358.731 249.297L311.346 219.229L320.648 199.983L392.765 244.811L383.808 331.988Z" fill="#C69A42"/>
</g>
<path d="M321.745 191.074V219.307L340.109 222.569L374.73 242.552L348.252 314.326L383.37 336.913C384.318 337.522 385.406 337.852 386.52 337.869C387.634 337.886 388.731 337.588 389.696 337.007C390.66 336.427 391.456 335.585 391.998 334.572C392.541 333.558 392.81 332.411 392.778 331.25C392.69 325.792 391.838 320.376 390.249 315.173L413.851 251.743C416.468 244.707 416.5 236.912 413.942 229.852C411.384 222.793 406.415 216.965 399.988 213.488L353.415 188.313L321.745 191.074Z" fill="#C73C27"/>
<path d="M348.224 314.295L383.341 336.882C384.289 337.491 385.378 337.821 386.492 337.838C387.605 337.854 388.702 337.557 389.667 336.976C390.631 336.396 391.427 335.554 391.97 334.541C392.512 333.527 392.782 332.379 392.749 331.219C392.668 325.773 391.826 320.367 390.25 315.174C377.129 311.665 365.12 304.635 355.419 294.783L348.224 314.295Z" fill="#1F9874"/>
<path d="M321.746 219.276H311.345L283.016 254.331L293.041 325.196L256.915 342.073C256.108 342.453 255.225 342.622 254.341 342.564C253.457 342.505 252.601 342.223 251.846 341.74C251.092 341.257 250.462 340.589 250.013 339.794C249.563 338.999 249.308 338.101 249.269 337.179C248.792 330.727 249.884 324.253 252.445 318.357L244.106 251.43C243.581 247.235 243.986 242.971 245.291 238.966C246.596 234.961 248.765 231.321 251.632 228.326L290.031 188.313L321.641 191.043L321.746 219.276Z" fill="#C73C27"/>
<path d="M293.042 325.196L289.504 300.226C271.14 321.118 252.49 318.389 252.49 318.389C249.93 324.285 248.838 330.758 249.314 337.211C249.354 338.132 249.609 339.03 250.059 339.825C250.508 340.62 251.137 341.288 251.892 341.771C252.646 342.254 253.503 342.537 254.387 342.595C255.27 342.653 256.154 342.485 256.961 342.104L293.042 325.196Z" fill="#1F9874"/>
<path d="M391.62 320.679C391.257 318.831 390.8 317.003 390.25 315.205C383.305 313.391 376.647 310.538 370.487 306.735C372.022 311.253 376.824 318.107 391.62 320.679Z" fill="#34251E"/>
<path d="M272.014 314.075C260.92 319.612 252.445 318.389 252.445 318.389C251.425 320.565 250.657 322.861 250.157 325.227C256.796 324.772 266.896 322.608 272.014 314.075Z" fill="#34251E"/>
<path opacity="0.41" d="M278.771 310.014L272.013 252.528L311.345 208.093H325.81" stroke="#34251E" stroke-miterlimit="10"/>
<path opacity="0.41" d="M360.973 220.483L385.915 236.623L363.186 301.731" stroke="#34251E" stroke-miterlimit="10"/>
<g opacity="0.16">
<path d="M20.2197 131.325C21.9209 129.096 24.0715 127.285 26.5193 126.019C28.9671 124.753 31.6521 124.064 34.3841 124C41.6243 124 47.3442 127.968 47.3442 135.638C47.3442 143.01 38.6891 144.83 38.6891 148.186V151.323H28.6039V146.79C28.6039 141.567 37.2591 138.618 37.2591 135.481C37.2591 133.333 35.1367 132.815 33.225 132.815C30.8919 132.815 28.0018 135.199 26.1504 137.52L20.2197 131.325ZM33.3605 152.766C34.1648 152.709 34.972 152.82 35.7341 153.094C36.4962 153.368 37.1978 153.799 37.7973 154.361C38.3967 154.922 38.8818 155.604 39.2237 156.364C39.5657 157.125 39.7575 157.95 39.7879 158.789C39.7879 161.926 37.2742 164.64 33.3003 164.64C32.5183 164.699 31.733 164.59 30.9933 164.319C30.2537 164.048 29.5756 163.621 29.0014 163.064C28.4272 162.508 27.9692 161.834 27.6561 161.085C27.3429 160.336 27.1813 159.528 27.1813 158.711C27.1813 157.894 27.3429 157.086 27.6561 156.337C27.9692 155.587 28.4272 154.914 29.0014 154.357C29.5756 153.801 30.2537 153.374 30.9933 153.103C31.733 152.832 32.5183 152.723 33.3003 152.782L33.3605 152.766Z" fill="white"/>
</g>
</svg>